<mxfile host="app.diagrams.net" modified="2024-06-30T22:17:10.087Z" agent="Mozilla/5.0 (X11; Linux x86_64) AppleWebKit/537.36 (KHTML, like Gecko) Chrome/126.0.0.0 Safari/537.36" etag="s-X3BK6tXH-8jDFKMN1x" version="24.6.4" type="device">
  <diagram name="Page-1" id="00-72VfkyQzKgv2hhJyx">
    <mxGraphModel dx="1834" dy="1180" grid="1" gridSize="5" guides="1" tooltips="1" connect="1" arrows="1" fold="1" page="0" pageScale="1" pageWidth="850" pageHeight="1100" math="1" shadow="0">
      <root>
        <mxCell id="0" />
        <mxCell id="1" parent="0" />
        <mxCell id="zOWhV3-rr6yu7c_ZCNnY-1" value="" style="ellipse;whiteSpace=wrap;html=1;aspect=fixed;fontSize=16;" parent="1" vertex="1">
          <mxGeometry x="-40" width="80" height="80" as="geometry" />
        </mxCell>
        <mxCell id="zOWhV3-rr6yu7c_ZCNnY-3" value="" style="ellipse;whiteSpace=wrap;html=1;aspect=fixed;fontSize=16;" parent="1" vertex="1">
          <mxGeometry x="-40" y="280" width="80" height="80" as="geometry" />
        </mxCell>
        <mxCell id="zOWhV3-rr6yu7c_ZCNnY-5" value="" style="ellipse;whiteSpace=wrap;html=1;aspect=fixed;fontSize=16;" parent="1" vertex="1">
          <mxGeometry x="240" y="-120" width="80" height="80" as="geometry" />
        </mxCell>
        <mxCell id="zOWhV3-rr6yu7c_ZCNnY-6" value="" style="ellipse;whiteSpace=wrap;html=1;aspect=fixed;fontSize=16;" parent="1" vertex="1">
          <mxGeometry x="240" y="400" width="80" height="80" as="geometry" />
        </mxCell>
        <mxCell id="zOWhV3-rr6yu7c_ZCNnY-8" value="" style="endArrow=none;html=1;rounded=0;fontSize=12;startSize=8;endSize=8;curved=1;" parent="1" source="zOWhV3-rr6yu7c_ZCNnY-6" target="zOWhV3-rr6yu7c_ZCNnY-1" edge="1">
          <mxGeometry width="50" height="50" relative="1" as="geometry">
            <mxPoint x="170" y="230" as="sourcePoint" />
            <mxPoint x="220" y="180" as="targetPoint" />
          </mxGeometry>
        </mxCell>
        <mxCell id="zOWhV3-rr6yu7c_ZCNnY-9" value="" style="endArrow=none;html=1;rounded=0;fontSize=12;startSize=8;endSize=8;curved=1;" parent="1" source="zOWhV3-rr6yu7c_ZCNnY-1" target="zOWhV3-rr6yu7c_ZCNnY-5" edge="1">
          <mxGeometry width="50" height="50" relative="1" as="geometry">
            <mxPoint x="170" y="230" as="sourcePoint" />
            <mxPoint x="220" y="180" as="targetPoint" />
          </mxGeometry>
        </mxCell>
        <mxCell id="zOWhV3-rr6yu7c_ZCNnY-10" value="" style="endArrow=none;html=1;rounded=0;fontSize=12;startSize=8;endSize=8;curved=1;" parent="1" source="zOWhV3-rr6yu7c_ZCNnY-3" target="zOWhV3-rr6yu7c_ZCNnY-6" edge="1">
          <mxGeometry width="50" height="50" relative="1" as="geometry">
            <mxPoint x="20" y="300" as="sourcePoint" />
            <mxPoint x="220" y="300" as="targetPoint" />
          </mxGeometry>
        </mxCell>
        <mxCell id="zOWhV3-rr6yu7c_ZCNnY-11" value="" style="endArrow=none;html=1;rounded=0;fontSize=12;startSize=8;endSize=8;curved=1;" parent="1" source="zOWhV3-rr6yu7c_ZCNnY-3" target="zOWhV3-rr6yu7c_ZCNnY-5" edge="1">
          <mxGeometry width="50" height="50" relative="1" as="geometry">
            <mxPoint x="10" y="350" as="sourcePoint" />
            <mxPoint x="210" y="340" as="targetPoint" />
          </mxGeometry>
        </mxCell>
        <mxCell id="zOWhV3-rr6yu7c_ZCNnY-12" value="" style="ellipse;whiteSpace=wrap;html=1;aspect=fixed;fontSize=16;" parent="1" vertex="1">
          <mxGeometry x="520" y="-120" width="80" height="80" as="geometry" />
        </mxCell>
        <mxCell id="zOWhV3-rr6yu7c_ZCNnY-13" value="" style="ellipse;whiteSpace=wrap;html=1;aspect=fixed;fontSize=16;" parent="1" vertex="1">
          <mxGeometry x="520" y="400" width="80" height="80" as="geometry" />
        </mxCell>
        <mxCell id="zOWhV3-rr6yu7c_ZCNnY-15" value="" style="ellipse;whiteSpace=wrap;html=1;aspect=fixed;fontSize=16;" parent="1" vertex="1">
          <mxGeometry x="800" width="80" height="80" as="geometry" />
        </mxCell>
        <mxCell id="zOWhV3-rr6yu7c_ZCNnY-16" value="" style="ellipse;whiteSpace=wrap;html=1;aspect=fixed;fontSize=16;" parent="1" vertex="1">
          <mxGeometry x="800" y="280" width="80" height="80" as="geometry" />
        </mxCell>
        <mxCell id="zOWhV3-rr6yu7c_ZCNnY-18" value="" style="endArrow=none;html=1;rounded=0;fontSize=12;startSize=8;endSize=8;curved=1;" parent="1" source="zOWhV3-rr6yu7c_ZCNnY-16" target="zOWhV3-rr6yu7c_ZCNnY-12" edge="1">
          <mxGeometry width="50" height="50" relative="1" as="geometry">
            <mxPoint x="730" y="230" as="sourcePoint" />
            <mxPoint x="780" y="180" as="targetPoint" />
          </mxGeometry>
        </mxCell>
        <mxCell id="zOWhV3-rr6yu7c_ZCNnY-19" value="" style="endArrow=none;html=1;rounded=0;fontSize=12;startSize=8;endSize=8;curved=1;" parent="1" source="zOWhV3-rr6yu7c_ZCNnY-12" target="zOWhV3-rr6yu7c_ZCNnY-15" edge="1">
          <mxGeometry width="50" height="50" relative="1" as="geometry">
            <mxPoint x="730" y="230" as="sourcePoint" />
            <mxPoint x="780" y="180" as="targetPoint" />
          </mxGeometry>
        </mxCell>
        <mxCell id="zOWhV3-rr6yu7c_ZCNnY-20" value="" style="endArrow=none;html=1;rounded=0;fontSize=12;startSize=8;endSize=8;curved=1;" parent="1" source="zOWhV3-rr6yu7c_ZCNnY-13" target="zOWhV3-rr6yu7c_ZCNnY-16" edge="1">
          <mxGeometry width="50" height="50" relative="1" as="geometry">
            <mxPoint x="580" y="300" as="sourcePoint" />
            <mxPoint x="780" y="300" as="targetPoint" />
          </mxGeometry>
        </mxCell>
        <mxCell id="zOWhV3-rr6yu7c_ZCNnY-21" value="" style="endArrow=none;html=1;rounded=0;fontSize=12;startSize=8;endSize=8;curved=1;" parent="1" source="zOWhV3-rr6yu7c_ZCNnY-13" target="zOWhV3-rr6yu7c_ZCNnY-15" edge="1">
          <mxGeometry width="50" height="50" relative="1" as="geometry">
            <mxPoint x="570" y="350" as="sourcePoint" />
            <mxPoint x="770" y="340" as="targetPoint" />
          </mxGeometry>
        </mxCell>
        <mxCell id="zOWhV3-rr6yu7c_ZCNnY-27" value="&lt;font style=&quot;font-size: 40px;&quot;&gt;$$L_0$$&lt;/font&gt;" style="text;html=1;align=center;verticalAlign=middle;resizable=0;points=[];autosize=1;strokeColor=none;fillColor=none;fontSize=16;" parent="1" vertex="1">
          <mxGeometry x="-90" y="520" width="180" height="60" as="geometry" />
        </mxCell>
        <mxCell id="zOWhV3-rr6yu7c_ZCNnY-28" value="&lt;font style=&quot;font-size: 40px;&quot;&gt;$$L_1$$&lt;/font&gt;" style="text;html=1;align=center;verticalAlign=middle;resizable=0;points=[];autosize=1;strokeColor=none;fillColor=none;fontSize=16;" parent="1" vertex="1">
          <mxGeometry x="190" y="520" width="180" height="60" as="geometry" />
        </mxCell>
        <mxCell id="zOWhV3-rr6yu7c_ZCNnY-29" value="&lt;font style=&quot;font-size: 40px;&quot;&gt;$$L_{n-1}$$&lt;/font&gt;" style="text;html=1;align=center;verticalAlign=middle;resizable=0;points=[];autosize=1;strokeColor=none;fillColor=none;fontSize=16;" parent="1" vertex="1">
          <mxGeometry x="440" y="520" width="240" height="60" as="geometry" />
        </mxCell>
        <mxCell id="zOWhV3-rr6yu7c_ZCNnY-30" value="&lt;font style=&quot;font-size: 40px;&quot;&gt;$$L_n$$&lt;/font&gt;" style="text;html=1;align=center;verticalAlign=middle;resizable=0;points=[];autosize=1;strokeColor=none;fillColor=none;fontSize=16;" parent="1" vertex="1">
          <mxGeometry x="750" y="520" width="180" height="60" as="geometry" />
        </mxCell>
        <mxCell id="zOWhV3-rr6yu7c_ZCNnY-31" value="" style="ellipse;whiteSpace=wrap;html=1;aspect=fixed;fontSize=16;fillColor=#000000;strokeColor=#000000;" parent="1" vertex="1">
          <mxGeometry x="-5" y="145" width="10" height="10" as="geometry" />
        </mxCell>
        <mxCell id="zOWhV3-rr6yu7c_ZCNnY-32" value="" style="ellipse;whiteSpace=wrap;html=1;aspect=fixed;fontSize=16;fillColor=#000000;strokeColor=#000000;" parent="1" vertex="1">
          <mxGeometry x="-5" y="175" width="10" height="10" as="geometry" />
        </mxCell>
        <mxCell id="zOWhV3-rr6yu7c_ZCNnY-33" value="" style="ellipse;whiteSpace=wrap;html=1;aspect=fixed;fontSize=16;fillColor=#000000;strokeColor=#000000;" parent="1" vertex="1">
          <mxGeometry x="-5" y="205" width="10" height="10" as="geometry" />
        </mxCell>
        <mxCell id="zOWhV3-rr6yu7c_ZCNnY-37" value="" style="ellipse;whiteSpace=wrap;html=1;aspect=fixed;fontSize=16;fillColor=#000000;strokeColor=#000000;" parent="1" vertex="1">
          <mxGeometry x="275" y="145" width="10" height="10" as="geometry" />
        </mxCell>
        <mxCell id="zOWhV3-rr6yu7c_ZCNnY-38" value="" style="ellipse;whiteSpace=wrap;html=1;aspect=fixed;fontSize=16;fillColor=#000000;strokeColor=#000000;" parent="1" vertex="1">
          <mxGeometry x="275" y="175" width="10" height="10" as="geometry" />
        </mxCell>
        <mxCell id="zOWhV3-rr6yu7c_ZCNnY-39" value="" style="ellipse;whiteSpace=wrap;html=1;aspect=fixed;fontSize=16;fillColor=#000000;strokeColor=#000000;" parent="1" vertex="1">
          <mxGeometry x="275" y="205" width="10" height="10" as="geometry" />
        </mxCell>
        <mxCell id="zOWhV3-rr6yu7c_ZCNnY-40" value="" style="ellipse;whiteSpace=wrap;html=1;aspect=fixed;fontSize=16;fillColor=#000000;strokeColor=#000000;" parent="1" vertex="1">
          <mxGeometry x="555" y="145" width="10" height="10" as="geometry" />
        </mxCell>
        <mxCell id="zOWhV3-rr6yu7c_ZCNnY-41" value="" style="ellipse;whiteSpace=wrap;html=1;aspect=fixed;fontSize=16;fillColor=#000000;strokeColor=#000000;" parent="1" vertex="1">
          <mxGeometry x="555" y="175" width="10" height="10" as="geometry" />
        </mxCell>
        <mxCell id="zOWhV3-rr6yu7c_ZCNnY-42" value="" style="ellipse;whiteSpace=wrap;html=1;aspect=fixed;fontSize=16;fillColor=#000000;strokeColor=#000000;" parent="1" vertex="1">
          <mxGeometry x="555" y="205" width="10" height="10" as="geometry" />
        </mxCell>
        <mxCell id="zOWhV3-rr6yu7c_ZCNnY-43" value="" style="ellipse;whiteSpace=wrap;html=1;aspect=fixed;fontSize=16;fillColor=#000000;strokeColor=#000000;" parent="1" vertex="1">
          <mxGeometry x="835" y="145" width="10" height="10" as="geometry" />
        </mxCell>
        <mxCell id="zOWhV3-rr6yu7c_ZCNnY-44" value="" style="ellipse;whiteSpace=wrap;html=1;aspect=fixed;fontSize=16;fillColor=#000000;strokeColor=#000000;" parent="1" vertex="1">
          <mxGeometry x="835" y="175" width="10" height="10" as="geometry" />
        </mxCell>
        <mxCell id="zOWhV3-rr6yu7c_ZCNnY-45" value="" style="ellipse;whiteSpace=wrap;html=1;aspect=fixed;fontSize=16;fillColor=#000000;strokeColor=#000000;" parent="1" vertex="1">
          <mxGeometry x="835" y="205" width="10" height="10" as="geometry" />
        </mxCell>
        <mxCell id="u5TK1V1DJF7eHLHDYVbF-1" value="" style="endArrow=none;dashed=1;html=1;strokeWidth=2;rounded=0;fontSize=12;startSize=8;endSize=8;curved=1;" edge="1" parent="1" source="zOWhV3-rr6yu7c_ZCNnY-6" target="zOWhV3-rr6yu7c_ZCNnY-12">
          <mxGeometry width="50" height="50" relative="1" as="geometry">
            <mxPoint x="395" y="280" as="sourcePoint" />
            <mxPoint x="445" y="230" as="targetPoint" />
          </mxGeometry>
        </mxCell>
        <mxCell id="u5TK1V1DJF7eHLHDYVbF-2" value="" style="endArrow=none;dashed=1;html=1;strokeWidth=2;rounded=0;fontSize=12;startSize=8;endSize=8;curved=1;" edge="1" parent="1" source="zOWhV3-rr6yu7c_ZCNnY-5" target="zOWhV3-rr6yu7c_ZCNnY-13">
          <mxGeometry width="50" height="50" relative="1" as="geometry">
            <mxPoint x="395" y="280" as="sourcePoint" />
            <mxPoint x="445" y="230" as="targetPoint" />
          </mxGeometry>
        </mxCell>
        <mxCell id="u5TK1V1DJF7eHLHDYVbF-3" value="" style="endArrow=none;dashed=1;html=1;strokeWidth=2;rounded=0;fontSize=12;startSize=8;endSize=8;curved=1;" edge="1" parent="1" source="zOWhV3-rr6yu7c_ZCNnY-5" target="zOWhV3-rr6yu7c_ZCNnY-12">
          <mxGeometry width="50" height="50" relative="1" as="geometry">
            <mxPoint x="395" y="280" as="sourcePoint" />
            <mxPoint x="445" y="230" as="targetPoint" />
          </mxGeometry>
        </mxCell>
        <mxCell id="u5TK1V1DJF7eHLHDYVbF-4" value="" style="endArrow=none;dashed=1;html=1;strokeWidth=2;rounded=0;fontSize=12;startSize=8;endSize=8;curved=1;" edge="1" parent="1" source="zOWhV3-rr6yu7c_ZCNnY-6" target="zOWhV3-rr6yu7c_ZCNnY-13">
          <mxGeometry width="50" height="50" relative="1" as="geometry">
            <mxPoint x="365" y="475" as="sourcePoint" />
            <mxPoint x="415" y="425" as="targetPoint" />
          </mxGeometry>
        </mxCell>
        <mxCell id="zOWhV3-rr6yu7c_ZCNnY-55" value="" style="ellipse;whiteSpace=wrap;html=1;aspect=fixed;fontSize=16;fillColor=#000000;strokeColor=#000000;shadow=0;" parent="1" vertex="1">
          <mxGeometry x="385" y="435" width="10" height="10" as="geometry" />
        </mxCell>
        <mxCell id="zOWhV3-rr6yu7c_ZCNnY-56" value="" style="ellipse;whiteSpace=wrap;html=1;aspect=fixed;fontSize=16;fillColor=#000000;strokeColor=#000000;shadow=0;" parent="1" vertex="1">
          <mxGeometry x="415" y="435" width="10" height="10" as="geometry" />
        </mxCell>
        <mxCell id="zOWhV3-rr6yu7c_ZCNnY-57" value="" style="ellipse;whiteSpace=wrap;html=1;aspect=fixed;fontSize=16;fillColor=#000000;strokeColor=#000000;shadow=0;" parent="1" vertex="1">
          <mxGeometry x="445" y="435" width="10" height="10" as="geometry" />
        </mxCell>
        <mxCell id="zOWhV3-rr6yu7c_ZCNnY-49" value="" style="ellipse;whiteSpace=wrap;html=1;aspect=fixed;fontSize=16;fillColor=#000000;strokeColor=#000000;" parent="1" vertex="1">
          <mxGeometry x="385" y="-85" width="10" height="10" as="geometry" />
        </mxCell>
        <mxCell id="zOWhV3-rr6yu7c_ZCNnY-50" value="" style="ellipse;whiteSpace=wrap;html=1;aspect=fixed;fontSize=16;fillColor=#000000;strokeColor=#000000;" parent="1" vertex="1">
          <mxGeometry x="415" y="-85" width="10" height="10" as="geometry" />
        </mxCell>
        <mxCell id="zOWhV3-rr6yu7c_ZCNnY-51" value="" style="ellipse;whiteSpace=wrap;html=1;aspect=fixed;fontSize=16;fillColor=#000000;strokeColor=#000000;" parent="1" vertex="1">
          <mxGeometry x="445" y="-85" width="10" height="10" as="geometry" />
        </mxCell>
      </root>
    </mxGraphModel>
  </diagram>
</mxfile>
